<svg width="32" height="32" viewBox="0 0 32 32" fill="none" xmlns="http://www.w3.org/2000/svg">
  <rect width="32" height="32" rx="6" fill="url(#paint0_linear)" />
  <path d="M9 8H17C19.7614 8 22 10.2386 22 13V13C22 15.7614 19.7614 18 17 18H9V8Z" fill="white"/>
  <path d="M9 18H17C19.7614 18 22 20.2386 22 23V23C22 25.7614 19.7614 28 17 28H9V18Z" fill="white"/>
  <path d="M19 13C19 14.6569 17.6569 16 16 16H12V10H16C17.6569 10 19 11.3431 19 13Z" fill="url(#paint1_linear)"/>
  <path d="M19 23C19 24.6569 17.6569 26 16 26H12V20H16C17.6569 20 19 21.3431 19 23Z" fill="url(#paint2_linear)"/>
  <defs>
    <linearGradient id="paint0_linear" x1="0" y1="0" x2="32" y2="32" gradientUnits="userSpaceOnUse">
      <stop stop-color="#322b9a" />
      <stop offset="1" stop-color="#883db3" />
    </linearGradient>
    <linearGradient id="paint1_linear" x1="12" y1="10" x2="19" y2="16" gradientUnits="userSpaceOnUse">
      <stop stop-color="#322b9a" />
      <stop offset="1" stop-color="#883db3" />
    </linearGradient>
    <linearGradient id="paint2_linear" x1="12" y1="20" x2="19" y2="26" gradientUnits="userSpaceOnUse">
      <stop stop-color="#322b9a" />
      <stop offset="1" stop-color="#883db3" />
    </linearGradient>
  </defs>
</svg>
